<svg xmlns="http://www.w3.org/2000/svg" width="1000" height="700" viewBox="0 0 1000 700" role="img"><title>StockPulse Mobile — product illustration</title><defs><linearGradient id="back" x2="1" y2="1"><stop stop-color="#b3a085"/><stop offset="1" stop-color="#b3a085" stop-opacity=".65"/></linearGradient><filter id="shadow" x="-35%" y="-35%" width="170%" height="190%"><feDropShadow dx="0" dy="25" stdDeviation="22" flood-opacity=".22"/></filter></defs><rect x="0" y="0" width="1000" height="700" rx="0" fill="#b3a085" /><rect x="0" y="0" width="1000" height="700" rx="0" fill="url(#back)" /><circle cx="870" cy="90" r="330" fill="none" stroke="#ffffff" stroke-opacity=".1"/><circle cx="870" cy="90" r="420" fill="none" stroke="#ffffff" stroke-opacity=".07"/><text x="65" y="119" font-family="Arial, sans-serif" font-size="33" fill="#26342d" >The market,</text><text x="65" y="161" font-family="Arial, sans-serif" font-size="33" fill="#26342d" >within reach.</text><text x="65" y="206" font-family="Arial, sans-serif" font-size="9" fill="#344438" letter-spacing="2">BUILT FOR MOBILE</text><g transform="translate(260,22) rotate(-7,240,330)" filter="url(#shadow)"><rect x="140" y="20" width="280" height="608" rx="39" fill="#172019" stroke="#3e4a3b" stroke-width="3"/><rect x="150" y="30" width="260" height="588" rx="31" fill="#111714" /><rect x="230" y="39" width="100" height="23" rx="14" fill="#070c09" /><text x="168" y="58" font-family="Arial, sans-serif" font-size="10" fill="#eeeee4" >9:41</text><text x="363" y="58" font-family="Arial, sans-serif" font-size="11" fill="#eeeee4" >•••</text><text x="172" y="111" font-family="Arial, sans-serif" font-size="16" fill="#eeeee4" >StockPulse</text><text x="172" y="143" font-family="Arial, sans-serif" font-size="8" fill="#899b8d" letter-spacing="1">YOUR PORTFOLIO</text><text x="172" y="181" font-family="Arial, sans-serif" font-size="31" fill="#eeeee4" >₹84,290.50</text><text x="172" y="208" font-family="Arial, sans-serif" font-size="9" fill="#b1c4a3" >+₹2,416.20 (2.95%) today</text><text x="175" y="248" font-family="Arial, sans-serif" font-size="9" fill="#899b8d" >1D</text><text x="218" y="248" font-family="Arial, sans-serif" font-size="9" fill="#899b8d" >1W</text><text x="261" y="248" font-family="Arial, sans-serif" font-size="9" fill="#e8eedd" >1M</text><text x="304" y="248" font-family="Arial, sans-serif" font-size="9" fill="#899b8d" >3M</text><text x="347" y="248" font-family="Arial, sans-serif" font-size="9" fill="#899b8d" >1Y</text><path d="M179 344v54" stroke="#a1806f"/><rect x="175" y="358" width="8" height="16" rx="1" fill="#a1806f" /><path d="M193 315.09321010560427v54" stroke="#b1c4a3"/><rect x="189" y="329.09321010560427" width="8" height="22" rx="1" fill="#b1c4a3" /><path d="M207 308.5807712035914v54" stroke="#b1c4a3"/><rect x="203" y="322.5807712035914" width="8" height="28" rx="1" fill="#b1c4a3" /><path d="M221 337.24323544635695v54" stroke="#a1806f"/><rect x="217" y="351.24323544635695" width="8" height="16" rx="1" fill="#a1806f" /><path d="M235 314.23549935763634v54" stroke="#b1c4a3"/><rect x="231" y="328.23549935763634" width="8" height="22" rx="1" fill="#b1c4a3" /><path d="M249 299.0576409475474v54" stroke="#b1c4a3"/><rect x="245" y="313.0576409475474" width="8" height="28" rx="1" fill="#b1c4a3" /><path d="M263 329.03322521591735v54" stroke="#a1806f"/><rect x="259" y="343.03322521591735" width="8" height="16" rx="1" fill="#a1806f" /><path d="M277 313.5980071459488v54" stroke="#b1c4a3"/><rect x="273" y="327.5980071459488" width="8" height="22" rx="1" fill="#b1c4a3" /><path d="M291 290.8044698738557v54" stroke="#b1c4a3"/><rect x="287" y="304.8044698738557" width="8" height="28" rx="1" fill="#b1c4a3" /><path d="M305 319.5460174566375v54" stroke="#a1806f"/><rect x="301" y="333.5460174566375" width="8" height="16" rx="1" fill="#a1806f" /><path d="M319 312.75355917445444v54" stroke="#b1c4a3"/><rect x="315" y="326.75355917445444" width="8" height="22" rx="1" fill="#b1c4a3" /><path d="M333 284.0007442985019v54" stroke="#b1c4a3"/><rect x="329" y="298.0007442985019" width="8" height="28" rx="1" fill="#b1c4a3" /><path d="M347 309.05940113940295v54" stroke="#a1806f"/><rect x="343" y="323.05940113940295" width="8" height="16" rx="1" fill="#a1806f" /><path d="M361 311.29146712424415v54" stroke="#b1c4a3"/><rect x="357" y="325.29146712424415" width="8" height="22" rx="1" fill="#b1c4a3" /><path d="M375 278.7104885400422v54" stroke="#b1c4a3"/><rect x="371" y="292.7104885400422" width="8" height="28" rx="1" fill="#b1c4a3" /><text x="174" y="410" font-family="Arial, sans-serif" font-size="8" fill="#899b8d" letter-spacing="1">YOUR HOLDINGS</text><rect x="171" y="429" width="26" height="26" rx="6" fill="#2d3a2c" /><text x="179" y="446" font-family="Arial, sans-serif" font-size="9" fill="#b1c4a3" >N</text><text x="208" y="439" font-family="Arial, sans-serif" font-size="10" fill="#eeeee4" >NVDA</text><text x="208" y="454" font-family="Arial, sans-serif" font-size="7" fill="#899b8d" >Portfolio position</text><text x="341" y="444" font-family="Arial, sans-serif" font-size="9" fill="#b1c4a3" >+2.14%</text><rect x="171" y="474" width="26" height="26" rx="6" fill="#2d3a2c" /><text x="179" y="491" font-family="Arial, sans-serif" font-size="9" fill="#b1c4a3" >A</text><text x="208" y="484" font-family="Arial, sans-serif" font-size="10" fill="#eeeee4" >AAPL</text><text x="208" y="499" font-family="Arial, sans-serif" font-size="7" fill="#899b8d" >Portfolio position</text><text x="341" y="489" font-family="Arial, sans-serif" font-size="9" fill="#b1c4a3" >+2.14%</text><rect x="171" y="519" width="26" height="26" rx="6" fill="#2d3a2c" /><text x="179" y="536" font-family="Arial, sans-serif" font-size="9" fill="#b1c4a3" >M</text><text x="208" y="529" font-family="Arial, sans-serif" font-size="10" fill="#eeeee4" >MSFT</text><text x="208" y="544" font-family="Arial, sans-serif" font-size="7" fill="#899b8d" >Portfolio position</text><text x="341" y="534" font-family="Arial, sans-serif" font-size="9" fill="#b1c4a3" >+2.14%</text><path d="M171 577H389V577" fill="none" stroke="#344137" stroke-width="1"/><text x="182" y="596" font-family="Arial, sans-serif" font-size="9" fill="#899b8d" >Overview     Markets     Portfolio</text><rect x="239" y="606" width="84" height="3" rx="2" fill="#8c9788" /></g><rect x="701" y="468" width="234" height="104" rx="4" fill="#ddd6c2" transform="rotate(4 800 510)"/><text x="720" y="500" font-family="Arial, sans-serif" font-size="9" fill="#415044" letter-spacing="1">CONNECTED BY DESIGN</text><text x="720" y="532" font-family="Arial, sans-serif" font-size="25" fill="#26352c" >Web + mobile.</text><text x="720" y="553" font-family="Arial, sans-serif" font-size="11" fill="#415044" >One connected portfolio.</text></svg>